<svg width="36" height="36" viewBox="0 0 36 36" fill="none" xmlns="http://www.w3.org/2000/svg">
<path d="M9 2.10938C8.24062 2.10938 7.66406 2.51227 7.24922 2.93836C6.8393 3.36375 6.52219 3.86789 6.22336 4.44586C5.6257 5.6018 5.12156 7.06641 4.68492 8.66953C4.11047 10.7789 3.66539 13.0852 3.42773 15.1172H5.98711C6.21914 13.2961 6.62133 11.1867 7.12969 9.33047C7.5375 7.83984 8.01562 6.49195 8.47266 5.60883C8.69766 5.16727 8.92969 4.84523 9.07031 4.69969C9.11953 4.64836 9.12656 4.64836 9.13359 4.64062H26.8664C26.8734 4.64836 26.8805 4.64836 26.9297 4.69969C27.0703 4.84523 27.3023 5.16727 27.5273 5.60883C27.9844 6.49195 28.4625 7.83984 28.8703 9.33047C29.3766 11.1867 29.7844 13.2961 30.0094 15.1172H32.5688C32.3367 13.0852 31.8867 10.7789 31.3172 8.66953C30.8812 7.06641 30.375 5.6018 29.7773 4.44586C29.475 3.86789 29.1586 3.36375 28.7508 2.93836C28.3359 2.51227 27.7594 2.10938 27 2.10938H9ZM2.25 16.3828C0.84375 16.3828 0.84375 19.6172 2.25 19.6172H33.75C35.1562 19.6172 35.1562 16.3828 33.75 16.3828H2.25ZM4.1625 20.8828C4.19414 21.0375 4.22438 21.1992 4.25391 21.3609L4.5007 21.607L5.22 20.8828H4.1625ZM7.01719 20.8828L5.39719 22.5L9 26.1L12.6 22.5L10.9828 20.8828H7.01719ZM12.7828 20.8828L13.5 21.6L14.2172 20.8828H12.7828ZM16.0172 20.8828L14.4 22.5L18 26.1L21.6 22.5L19.9828 20.8828H16.0172ZM21.7828 20.8828L22.5 21.6L23.2172 20.8828H21.7828ZM25.0172 20.8828L23.4 22.5L27 26.1L30.6 22.5L28.9828 20.8828H25.0172ZM30.7828 20.8828L31.5 21.6L31.7461 21.3539C31.7742 21.1922 31.8094 21.0375 31.8375 20.8828H30.7828ZM13.5 23.4L9.89297 27L13.493 30.6L17.1 27L13.5 23.4ZM22.5 23.4L18.9 27L22.5 30.6L26.1 27L22.5 23.4ZM4.59984 23.4984C4.86844 25.3195 5.13141 27.3164 5.53922 29.1094C5.56734 29.2359 5.59758 29.3555 5.62711 29.475L8.1 27L4.59984 23.4984ZM31.3945 23.5055L27.9 27L30.375 29.475C30.4031 29.3484 30.4313 29.2289 30.4594 29.1094C30.8672 27.3164 31.1344 25.3266 31.3945 23.5055ZM9 27.893L6.02086 30.8742C6.2768 31.6617 6.57352 32.3508 6.91453 32.8852C7.49531 33.7922 8.11406 34.2422 9 34.2422H9.85781L12.6 31.493L9 27.893ZM18 27.9L14.4 31.507L17.1352 34.2422H18.8648L21.6 31.5L18 27.9ZM27 27.9L23.4 31.5L26.1422 34.2422H27C27.8859 34.2422 28.5047 33.7922 29.0883 32.8852C29.4258 32.3508 29.7211 31.6617 29.9742 30.8742L27 27.9ZM13.507 32.4L11.6578 34.2422H15.3492L13.507 32.4ZM22.5 32.4L20.6578 34.2422H24.3422L22.5 32.4Z" fill="#F0F0F0"/>
</svg>
