<svg width="36" height="36" viewBox="0 0 36 36" fill="none" xmlns="http://www.w3.org/2000/svg">
<path fill-rule="evenodd" clip-rule="evenodd" d="M19.0605 3.43967C18.7792 3.15846 18.3977 3.00049 18 3.00049C17.6023 3.00049 17.2208 3.15846 16.9395 3.43967L6.4395 13.9397L3.4395 16.9397C3.29623 17.078 3.18196 17.2436 3.10335 17.4266C3.02473 17.6096 2.98335 17.8064 2.98162 18.0056C2.97989 18.2047 3.01785 18.4023 3.09327 18.5866C3.16869 18.7709 3.28007 18.9384 3.42091 19.0793C3.56175 19.2201 3.72922 19.3315 3.91357 19.4069C4.09791 19.4823 4.29543 19.5203 4.4946 19.5185C4.69377 19.5168 4.8906 19.4754 5.07361 19.3968C5.25661 19.3182 5.42213 19.2039 5.5605 19.0607L6 18.6212V28.5002C6 29.6936 6.47411 30.8382 7.31802 31.6821C8.16193 32.5261 9.30653 33.0002 10.5 33.0002H25.5C26.6935 33.0002 27.8381 32.5261 28.682 31.6821C29.5259 30.8382 30 29.6936 30 28.5002V18.6212L30.4395 19.0607C30.7224 19.3339 31.1013 19.4851 31.4946 19.4817C31.8879 19.4783 32.2641 19.3205 32.5422 19.0424C32.8203 18.7643 32.9781 18.3881 32.9815 17.9948C32.9849 17.6015 32.8337 17.2226 32.5605 16.9397L19.0605 3.43967Z" fill="#F0F0F0"/>
</svg>
