<svg width="29" height="36" viewBox="0 0 29 36" fill="none" xmlns="http://www.w3.org/2000/svg">
<path fill-rule="evenodd" clip-rule="evenodd" d="M12.6 0C11.1678 0 9.79432 0.568927 8.78162 1.58162C7.76893 2.59432 7.2 3.96783 7.2 5.4V30.6C7.2 32.0322 7.76893 33.4057 8.78162 34.4184C9.79432 35.4311 11.1678 36 12.6 36H23.4C24.8322 36 26.2057 35.4311 27.2184 34.4184C28.2311 33.4057 28.8 32.0322 28.8 30.6V5.4C28.8 3.96783 28.2311 2.59432 27.2184 1.58162C26.2057 0.568927 24.8322 0 23.4 0H12.6ZM14.9274 11.3274C15.265 10.99 15.7227 10.8004 16.2 10.8004C16.6773 10.8004 17.1351 10.99 17.4726 11.3274L22.8726 16.7274C23.2101 17.0649 23.3996 17.5227 23.3996 18C23.3996 18.4773 23.2101 18.935 22.8726 19.2726L17.4726 24.6726C17.1331 25.0005 16.6784 25.1819 16.2065 25.1778C15.7345 25.1737 15.2831 24.9844 14.9493 24.6507C14.6156 24.3169 14.4263 23.8655 14.4222 23.3935C14.4181 22.9216 14.5995 22.4669 14.9274 22.1274L17.2548 19.8H1.8C1.32261 19.8 0.864774 19.6104 0.527208 19.2728C0.189643 18.9352 0 18.4774 0 18C0 17.5226 0.189643 17.0648 0.527208 16.7272C0.864774 16.3896 1.32261 16.2 1.8 16.2H17.2548L14.9274 13.8726C14.59 13.535 14.4004 13.0773 14.4004 12.6C14.4004 12.1227 14.59 11.6649 14.9274 11.3274Z" fill="#F2F2F2"/>
</svg>
