<svg width="36" height="36" viewBox="0 0 36 36" fill="none" xmlns="http://www.w3.org/2000/svg">
<path fill-rule="evenodd" clip-rule="evenodd" d="M9 3C7.80653 3 6.66193 3.47411 5.81802 4.31802C4.97411 5.16193 4.5 6.30653 4.5 7.5V28.5C4.5 29.6935 4.97411 30.8381 5.81802 31.682C6.66193 32.5259 7.80653 33 9 33H18C19.1935 33 20.3381 32.5259 21.182 31.682C22.0259 30.8381 22.5 29.6935 22.5 28.5V7.5C22.5 6.30653 22.0259 5.16193 21.182 4.31802C20.3381 3.47411 19.1935 3 18 3H9ZM24.4395 10.9395C24.7208 10.6583 25.1023 10.5003 25.5 10.5003C25.8977 10.5003 26.2792 10.6583 26.5605 10.9395L32.5605 16.9395C32.8417 17.2208 32.9997 17.6023 32.9997 18C32.9997 18.3977 32.8417 18.7792 32.5605 19.0605L26.5605 25.0605C26.2776 25.3337 25.8987 25.4849 25.5054 25.4815C25.1121 25.4781 24.7359 25.3203 24.4578 25.0422C24.1797 24.7641 24.0219 24.3879 24.0185 23.9946C24.0151 23.6013 24.1663 23.2224 24.4395 22.9395L27.879 19.5H15C14.6022 19.5 14.2206 19.342 13.9393 19.0607C13.658 18.7794 13.5 18.3978 13.5 18C13.5 17.6022 13.658 17.2206 13.9393 16.9393C14.2206 16.658 14.6022 16.5 15 16.5H27.879L24.4395 13.0605C24.1583 12.7792 24.0003 12.3977 24.0003 12C24.0003 11.6023 24.1583 11.2208 24.4395 10.9395Z" fill="#F0F0F0"/>
</svg>
