<svg width="41" height="49" viewBox="0 0 41 49" fill="none" xmlns="http://www.w3.org/2000/svg">
<path d="M14.5475 0.0144872C14.2795 0.0543325 14.0236 0.152658 13.7979 0.302487C13.7979 0.302487 11.4626 1.77203 8.95179 3.36156C6.44103 4.94926 3.64779 6.69941 3.00903 7.05387C2.96962 7.07097 2.93083 7.08945 2.89272 7.10926C0.573949 8.54003 0.0921026 10.8773 0.00902564 12.188C0.00348718 12.2489 0.00902564 12.2988 0.00902564 12.3634C-0.0112821 12.8545 0.00902564 13.1702 0.00902564 13.1702V37.2865C0.00902564 40.7905 4.09456 42.476 7.97149 42.476C9.2638 42.476 10.5561 42.2674 11.6638 41.8982C12.4023 41.5289 12.9321 40.7905 12.9321 40.052V20.6674C12.9321 16.4213 13.8552 14.4274 16.6244 12.7659C17.3629 12.3966 25.1056 7.05203 25.1056 7.05203C25.4749 6.68279 25.8552 5.93326 25.8552 5.37941V5.20587C25.8552 4.46741 25.4859 3.90249 24.9321 3.53326C24.3783 3.16403 23.6398 3.16403 23.0859 3.53326C22.9013 3.71787 11.6398 11.3 9.2398 12.5923C6.8398 14.0693 4.60041 14.4256 4.04656 13.6871C3.87487 13.5154 3.72533 12.9893 3.70133 12.476V12.3597C3.70318 11.8576 3.83241 10.9123 4.85518 10.2828C5.89272 9.70495 8.4681 8.06003 10.9715 6.47603C12.0293 5.80587 12.1604 5.73387 12.9893 5.20587C13.0985 5.65688 13.3734 6.05025 13.7595 6.30769C14.1455 6.56513 14.6143 6.66775 15.0726 6.59513C15.5309 6.52251 15.9451 6.27997 16.2326 5.9158C16.5202 5.55162 16.6601 5.09252 16.6244 4.62987V1.86064C16.6265 1.5975 16.5723 1.33696 16.4654 1.09648C16.3585 0.856003 16.2015 0.641149 16.0048 0.466321C15.8081 0.291494 15.5764 0.160734 15.325 0.0828063C15.0737 0.00487893 14.8086 -0.0184147 14.5475 0.0144872ZM29.3167 6.47603C29.0231 6.52485 28.7457 6.64393 28.5081 6.8231C28.5081 6.8231 19.2146 13.076 17.6047 14.1486C17.5852 14.1679 17.5661 14.1876 17.5475 14.2077C16.2109 15.2102 15.4189 16.4028 15.0663 17.4939C14.8687 18.1094 14.7714 18.7527 14.7783 19.3991V19.9769C14.7756 20.0341 14.7756 20.0914 14.7783 20.1486V42.476C14.7783 45.9837 18.8176 48.0145 22.5099 48.0145C24.1715 48.0145 25.6706 47.6563 26.7783 46.9179C28.9936 45.6256 39.7013 37.2846 39.7013 37.2846C40.2552 36.9154 40.6244 36.3948 40.6244 35.8409V11.8409C40.6244 10.9179 40.2663 10.364 39.5278 9.99479C38.9739 9.62556 38.0638 9.7991 37.5099 10.1683C34.5561 12.3837 26.6047 18.6385 24.7586 19.7462C22.1739 21.2231 19.7389 21.5923 18.8158 20.6693C18.4466 20.3 18.4706 19.9529 18.4706 19.3991C18.4816 19.0816 18.5167 18.8083 18.5869 18.5905C18.6903 18.2693 18.9007 17.8742 19.6816 17.2649C19.7186 17.2354 19.7001 17.2373 19.7389 17.2077C21.0736 16.316 25.1555 13.5339 27.8176 11.7246C27.9685 12.1293 28.2563 12.4682 28.6312 12.6825C29.0061 12.8969 29.4442 12.973 29.8694 12.8977C30.2946 12.8224 30.68 12.6004 30.9585 12.2704C31.2369 11.9404 31.3909 11.5232 31.3936 11.0914V8.32218C31.3957 8.05904 31.3415 7.79849 31.2346 7.55802C31.1278 7.31754 30.9707 7.10269 30.7741 6.92786C30.5774 6.75303 30.3456 6.62227 30.0943 6.54434C29.8429 6.46642 29.5778 6.44312 29.3167 6.47603ZM36.9321 19.9769V23.6693L27.7013 30.8213V27.1289L36.9321 19.9769Z" fill="#F2F2F2"/>
</svg>
