<svg width="24" height="24" viewBox="0 0 24 24" fill="none" xmlns="http://www.w3.org/2000/svg">
<path d="M22.459 6.84603V10.505C22.262 10.505 22.026 10.545 21.79 10.545C20.0742 10.5363 18.4164 9.92301 17.108 8.81303V16.603C17.1152 18.1367 16.6177 19.6302 15.692 20.853C15.0396 21.7307 14.1912 22.4437 13.2144 22.9354C12.2377 23.4271 11.1595 23.6838 10.066 23.685C8.87637 23.685 7.70643 23.3814 6.66685 22.8031C5.62726 22.2247 4.75239 21.3908 4.125 20.38C5.384 21.56 7.075 22.308 8.925 22.308C10.0137 22.3105 11.0874 22.055 12.0584 21.5626C13.0293 21.0702 13.8698 20.3548 14.511 19.475C15.377 18.295 15.928 16.839 15.928 15.226V7.39603C17.187 8.49803 18.8 9.12803 20.61 9.12803C20.846 9.12803 21.043 9.12803 21.279 9.08803V6.72803C21.633 6.80703 21.948 6.84603 22.302 6.84603H22.459Z" fill="#F2F2F2"/>
<path d="M11.05 9.56018V13.6132C10.7679 13.5354 10.4767 13.4957 10.184 13.4952C8.45202 13.4952 7.03602 14.9512 7.03602 16.7212C7.03602 17.1152 7.11502 17.4692 7.23302 17.8232C6.44602 17.2332 5.89502 16.2882 5.89502 15.2262C5.89502 13.4562 7.31102 12.0002 9.04302 12.0002C9.35702 12.0002 9.63302 12.0402 9.90802 12.1182V9.52118H10.144C10.459 9.52118 10.774 9.52118 11.049 9.56118L11.05 9.56018ZM17.698 3.93418C16.99 3.30418 16.478 2.43918 16.203 1.53418H17.148V2.08518C17.2345 2.7266 17.42 3.34971 17.698 3.93418Z" fill="#F2F2F2"/>
<path d="M21.318 6.76718V9.12718C21.121 9.16718 20.885 9.16718 20.649 9.16718C18.9335 9.15898 17.2757 8.54644 15.967 7.43718V15.2272C15.9738 16.7602 15.4762 18.2529 14.551 19.4752C13.252 21.2072 11.246 22.3082 8.96399 22.3082C7.11399 22.3082 5.42299 21.5612 4.16399 20.3802C3.47119 19.2567 3.10357 17.9631 3.10199 16.6432C3.10199 12.8262 6.13199 9.71818 9.90799 9.60018V12.1972C9.62621 12.1194 9.3353 12.0798 9.04299 12.0792C7.31099 12.0792 5.89499 13.5342 5.89499 15.3052C5.89499 16.3672 6.40699 17.3512 7.23299 17.9022C7.66599 19.1222 8.84599 20.0262 10.183 20.0262C11.915 20.0262 13.331 18.5702 13.331 16.8002V1.53418H16.203C16.479 2.47918 16.99 3.30418 17.698 3.93418C18.0556 4.64377 18.5655 5.26563 19.1913 5.75535C19.8171 6.24507 20.5432 6.59058 21.318 6.76718Z" fill="#F2F2F2"/>
<path d="M9.90799 8.18398V9.51998C6.13099 9.63798 3.10199 12.746 3.10199 16.563C3.10199 17.94 3.49499 19.199 4.16399 20.301C3.47446 19.6324 2.92729 18.8312 2.5554 17.9456C2.18351 17.0601 1.99459 16.1084 1.99999 15.148C1.99999 11.252 5.14799 8.10498 9.00299 8.10498C9.31799 8.10498 9.63299 8.14498 9.90799 8.18398Z" fill="#F2F2F2"/>
<path d="M16.203 1.534H13.331V16.721C13.331 18.491 11.915 19.948 10.184 19.948C8.80697 19.948 7.66597 19.082 7.23297 17.823C7.74397 18.177 8.37297 18.413 9.04297 18.413C10.773 18.413 12.19 16.997 12.19 15.226V0H16.007V0.079C16.007 0.236 16.007 0.393 16.046 0.551C16.046 0.866 16.125 1.22 16.203 1.534ZM21.318 5.311V6.728C19.744 6.413 18.407 5.351 17.659 3.934C18.6479 4.85987 19.964 5.35516 21.318 5.311Z" fill="#F2F2F2"/>
</svg>
